<?xml version="1.0" encoding="iso-8859-1"?>
<!-- Generator: Adobe Illustrator 19.0.0, SVG Export Plug-In . SVG Version: 6.00 Build 0)  -->
<svg width="80%" height="45px" preserveAspectRatio="none" version="1.1" xmlns="http://www.w3.org/2000/svg" xmlns:xlink="http://www.w3.org/1999/xlink" x="0px" y="0px"
	 viewBox="0 0 491.975 137.993" style="enable-background:new 0 0 491.975 137.993;" xml:space="preserve">
<g id="Layer_1">
</g>
<g id="Layer_2">
	<g>
		<linearGradient id="SVGID_1_" gradientUnits="userSpaceOnUse" x1="1808.8328" y1="799.244" x2="1403.3328" y2="799.244">
			<stop  offset="0.325" style="stop-color:#FF9121"/>
			<stop  offset="0.5982" style="stop-color:#FFAB27"/>
			<stop  offset="1" style="stop-color:#FFD932"/>
		</linearGradient>
		<path style="fill:url(#SVGID_1_);" d="M1764.954,756.369h-400.35c-8.74,0-16.64,5.18-20.12,13.2l-25.87,59.54
			c-2.67,6.15,1.83,13.01,8.53,13.01h401.96c8.41,0,16.01-5.01,19.32-12.74l25.48-59.44
			C1776.654,763.509,1771.944,756.369,1764.954,756.369z M1740.154,829.659c-1.33,3.16-4.42,5.21-7.84,5.21h-408.85l30.17-68.75
			c0.73-1.67,2.38-2.75,4.21-2.75h410.12L1740.154,829.659z"/>
		<linearGradient id="SVGID_2_" gradientUnits="userSpaceOnUse" x1="1544.726" y1="831.7294" x2="1546.726" y2="765.7294">
			<stop  offset="0.325" style="stop-color:#FF9121"/>
			<stop  offset="0.5982" style="stop-color:#FFAB27"/>
			<stop  offset="1" style="stop-color:#FFD932"/>
		</linearGradient>
		<path style="fill:url(#SVGID_2_);" d="M1767.964,763.369l-27.81,66.29c-1.33,3.16-4.42,5.21-7.84,5.21h-408.85l30.17-68.75
			c0.73-1.67,2.38-2.75,4.21-2.75H1767.964z"/>
	</g>
	<g>
		<linearGradient id="SVGID_3_" gradientUnits="userSpaceOnUse" x1="508.5539" y1="68.9966" x2="103.0539" y2="68.9966">
			<stop  offset="0.325" style="stop-color:#FF9121"/>
			<stop  offset="0.5982" style="stop-color:#FFAB27"/>
			<stop  offset="1" style="stop-color:#FFD932"/>
		</linearGradient>
		<path style="fill:url(#SVGID_3_);" d="M464.675,26.122H64.325c-8.74,0-16.64,5.18-20.12,13.2l-25.87,59.54
			c-2.67,6.15,1.83,13.01,8.53,13.01h401.96c8.41,0,16.01-5.01,19.32-12.74l25.48-59.44
			C476.375,33.262,471.665,26.122,464.675,26.122z M439.875,99.412c-1.33,3.16-4.42,5.21-7.84,5.21H23.185l30.17-68.75
			c0.73-1.67,2.38-2.75,4.21-2.75h410.12L439.875,99.412z"/>
		<linearGradient id="SVGID_4_" gradientUnits="userSpaceOnUse" x1="244.4471" y1="101.482" x2="246.4471" y2="35.482">
			<stop  offset="0" style="stop-color:#991913"/>
			<stop  offset="0.3012" style="stop-color:#B31C14"/>
			<stop  offset="0.9437" style="stop-color:#F72518"/>
			<stop  offset="1" style="stop-color:#FD2618"/>
		</linearGradient>
		<path style="fill:url(#SVGID_4_);" d="M467.685,33.122l-27.81,66.29c-1.33,3.16-4.42,5.21-7.84,5.21H23.185l30.17-68.75
			c0.73-1.67,2.38-2.75,4.21-2.75H467.685z"/>
	</g>
</g>
</svg>
