<?xml version="1.0" encoding="iso-8859-1"?>
<!-- Generator: Adobe Illustrator 19.0.0, SVG Export Plug-In . SVG Version: 6.00 Build 0)  -->
<svg version="1.1" xmlns="http://www.w3.org/2000/svg" xmlns:xlink="http://www.w3.org/1999/xlink" x="0px" y="0px" width="80%" height="45px" preserveAspectRatio="none"
	 viewBox="0 0 491.975 137.993" style="enable-background:new 0 0 491.975 137.993;" xml:space="preserve">
<g id="Layer_1">
</g>
<g id="Layer_2">
	<g>
		<linearGradient id="SVGID_1_" gradientUnits="userSpaceOnUse" x1="506.8979" y1="73.2803" x2="101.3979" y2="73.2803">
			<stop  offset="0.325" style="stop-color:#FF9121"/>
			<stop  offset="0.5982" style="stop-color:#FFAB27"/>
			<stop  offset="1" style="stop-color:#FFD932"/>
		</linearGradient>
		<path style="fill:url(#SVGID_1_);" d="M463.019,30.405H62.669c-8.74,0-16.64,5.18-20.12,13.2l-25.87,59.54
			c-2.67,6.15,1.83,13.01,8.53,13.01h401.96c8.41,0,16.01-5.01,19.32-12.74l25.48-59.44
			C474.719,37.545,470.009,30.405,463.019,30.405z M438.219,103.695c-1.33,3.16-4.42,5.21-7.84,5.21H21.529l30.17-68.75
			c0.73-1.67,2.38-2.75,4.21-2.75h410.12L438.219,103.695z"/>
		<linearGradient id="SVGID_2_" gradientUnits="userSpaceOnUse" x1="242.791" y1="105.7657" x2="244.791" y2="39.7657">
			<stop  offset="0.325" style="stop-color:#FF9121"/>
			<stop  offset="0.5982" style="stop-color:#FFAB27"/>
			<stop  offset="1" style="stop-color:#FFD932"/>
		</linearGradient>
		<path style="fill:url(#SVGID_2_);" d="M466.029,37.405l-27.81,66.29c-1.33,3.16-4.42,5.21-7.84,5.21H21.529l30.17-68.75
			c0.73-1.67,2.38-2.75,4.21-2.75H466.029z"/>
	</g>
	<g>
		<linearGradient id="SVGID_3_" gradientUnits="userSpaceOnUse" x1="1863.7035" y1="531.5963" x2="1458.2035" y2="531.5963">
			<stop  offset="0.325" style="stop-color:#FF9121"/>
			<stop  offset="0.5982" style="stop-color:#FFAB27"/>
			<stop  offset="1" style="stop-color:#FFD932"/>
		</linearGradient>
		<path style="fill:url(#SVGID_3_);" d="M1819.825,488.721h-400.35c-8.74,0-16.64,5.18-20.12,13.2l-25.87,59.54
			c-2.67,6.15,1.83,13.01,8.53,13.01h401.96c8.41,0,16.01-5.01,19.32-12.74l25.48-59.44
			C1831.525,495.861,1826.815,488.721,1819.825,488.721z M1795.025,562.011c-1.33,3.16-4.42,5.21-7.84,5.21h-408.85l30.17-68.75
			c0.73-1.67,2.38-2.75,4.21-2.75h410.12L1795.025,562.011z"/>
		<linearGradient id="SVGID_4_" gradientUnits="userSpaceOnUse" x1="1599.5967" y1="564.0817" x2="1601.5967" y2="498.0817">
			<stop  offset="0" style="stop-color:#991913"/>
			<stop  offset="0.3012" style="stop-color:#B31C14"/>
			<stop  offset="0.9437" style="stop-color:#F72518"/>
			<stop  offset="1" style="stop-color:#FD2618"/>
		</linearGradient>
		<path style="fill:url(#SVGID_4_);" d="M1822.835,495.721l-27.81,66.29c-1.33,3.16-4.42,5.21-7.84,5.21h-408.85l30.17-68.75
			c0.73-1.67,2.38-2.75,4.21-2.75H1822.835z"/>
	</g>
</g>
</svg>
