<?xml version="1.0" encoding="iso-8859-1"?>
<!-- Generator: Adobe Illustrator 19.0.0, SVG Export Plug-In . SVG Version: 6.00 Build 0)  -->
<svg version="1.1"
    id="Layer_1"
    xmlns="http://www.w3.org/2000/svg"
    xmlns:xlink="http://www.w3.org/1999/xlink"
    x="0px"
    y="0px"
    viewBox="0 0 595.28 4109.178"
    style="enable-background:new 0 0 595.28 4109.178;"
    xml:space="preserve">
	<defs>
		<linearGradient
			id="GoldGradient"
			x1="0%"
			y1="0%"
			x2="100%"
			y2="0%"
		>
			<stop
				offset="0%"
				style="stop-color: rgba(255, 238, 191, 1); stop-opacity: 1"
			/>
			<stop
				offset="35%"
				style="stop-color: rgba(243, 220, 170, 1); stop-opacity: 1"
			/>
			<stop
				offset="100%"
				style="stop-color: rgba(189, 139, 75, 1); stop-opacity: 1"
			/>
		</linearGradient>
	</defs>
	<g>
		<path fill="url(#GoldGradient)" class="st0"
			d="M287.6,1025.7c-48.3,0-87.6,39.3-87.6,87.6c0,48.3,39.3,87.6,87.6,87.6c48.3,0,87.6-39.3,87.6-87.6
		C375.2,1065,335.9,1025.7,287.6,1025.7z M280.6,1032.5h13.6v13.6h-13.6V1032.5z M348.8,1113.3c0,33.7-27.4,61.2-61.2,61.2
		s-61.2-27.4-61.2-61.2s27.4-61.2,61.2-61.2C321.3,1052.1,348.8,1079.6,348.8,1113.3z M235.3,1051.4l9.6,9.6l-9.6,9.6l-9.6-9.6
		L235.3,1051.4z M220.2,1120.1h-13.6v-13.6h13.6V1120.1z M235.3,1175.2l-9.6-9.6l9.6-9.6l9.6,9.6L235.3,1175.2z M294.1,1194.1h-13.6
		v-13.6h13.6V1194.1z M339.9,1175.2l-9.6-9.6l9.6-9.6l9.6,9.6L339.9,1175.2z M339.9,1070.6l-9.6-9.6l9.6-9.6l9.6,9.6L339.9,1070.6z
		 M354.6,1120.1v-13.6h13.6v13.6H354.6z" />

		<path fill="url(#GoldGradient)"
			d="M237.7,1113.3c0,27.5,22.4,49.9,49.9,49.9
		c27.5,0,49.9-22.4,49.9-49.9s-22.4-49.9-49.9-49.9C260.1,1063.4,237.7,1085.8,237.7,1113.3z M311.4,1109.1
		c2.4,3.8,3.1,7.2,3.1,11.3c0,10-7,15.4-15.1,15.4c-5.5,0-8.6-2.6-10.3-4.7l2.9,10.3H283l2.8-10c-1.8,2.1-4.8,4.7-10.1,4.7
		c-8,0-15.1-5.5-15.1-15.5c0-4,0.7-7.5,3.1-11.4c3.7-6,23.9-23.1,23.9-23.1S307.8,1103.1,311.4,1109.1z" />
	</g>
</svg>