<?xml version="1.0" encoding="iso-8859-1"?>
<!-- Generator: Adobe Illustrator 19.0.0, SVG Export Plug-In . SVG Version: 6.00 Build 0)  -->
<svg version="1.1"
    id="Layer_1"
    xmlns="http://www.w3.org/2000/svg"
    xmlns:xlink="http://www.w3.org/1999/xlink"
    x="0px"
    y="0px"
    viewBox="0 0 595.28 4109.178"
    style="enable-background:new 0 0 595.28 4109.178;"
    xml:space="preserve">
	<defs>
		<linearGradient
			id="GoldGradient"
			x1="0%"
			y1="0%"
			x2="100%"
			y2="0%"
		>
			<stop
				offset="0%"
				style="stop-color: rgba(255, 238, 191, 1); stop-opacity: 1"
			/>
			<stop
				offset="35%"
				style="stop-color: rgba(243, 220, 170, 1); stop-opacity: 1"
			/>
			<stop
				offset="100%"
				style="stop-color: rgba(189, 139, 75, 1); stop-opacity: 1"
			/>
		</linearGradient>
	</defs>
	<g>
		<path fill="url(#GoldGradient)"
			d="M381.972,3521.202h-102.42c-9.695-11.608-24.219-19.031-40.494-19.189
			c-28.638-0.279-52.692,22.468-53.939,51.08c-0.667,15.324,5.131,29.314,14.903,39.454v63.747c0,6.332,5.133,11.465,11.465,11.465
			h66.3c0,0,0.748,14.456-15.703,15.952c-6.231,0-6.48,10.718-1.495,10.718c4.985,0,72.531,0,72.531,0s5.733-7.976-1.246-10.219
			c-6.979-2.243-15.453-4.237-16.45-16.45h66.549c6.332,0,11.465-5.133,11.465-11.465v-123.626
			C393.438,3526.336,388.304,3521.202,381.972,3521.202z M278.954,3577.034c-1.834,6.48-13.958,17.447-13.958,17.447
			s-6.65,3.32-3.828-6.979l8.973-13.13C270.14,3574.372,280.778,3570.553,278.954,3577.034z M258.515,3582.657
			c-0.499,0.528-15.952-2.303-15.952-2.303l-8.973-15.782l7.139-9.093l19.94,2.781l5.154,11.964
			C265.823,3570.224,259.014,3582.138,258.515,3582.657z M270.14,3523.476l4.985,4.706l-0.289,5.483l-0.538,9.97l-8.973,9.471
			l-21.934-2.163l-3.818-17.278l13.958-12.462L270.14,3523.476z M216.822,3521.202c0.07-0.728,0.149-1.166,0.149-1.166
			s2.323-9.471,17.447-9.97c15.124-0.499,15.623,5.154,13.13,8.145c-0.568,0.678-1.535,1.745-2.702,2.991
			c-3.938,4.217-10.099,10.469-10.099,10.469s-13.121,3.988-16.111,0C216.363,3528.64,216.582,3523.496,216.822,3521.202z
			 M200.022,3529.567c1.505-2.263,3.091-4.028,4.486-4.875c4.486-2.742,6.979,0,6.979,0l1.675,8.973l1.067,5.733l-1.246,1.515
			l-6.979,8.455c0,0-2.991,0.608-5.982,0.648c-2.871,0.05-5.743-0.409-5.982-2.393
			C193.701,3542.119,196.672,3534.602,200.022,3529.567z M200.022,3581.58c-0.339-0.419-0.688-0.967-1.057-1.675
			c-4.117-7.916-6.361-14.586-6.67-22.811c0,0,2.024-3.4,7.727-2.682c1.196,0.149,2.552,0.489,4.097,1.067
			c3.878,1.615,4.626,14.078,2.881,17.567C205.416,3576.226,203.462,3585.857,200.022,3581.58z M207.38,3587.751
			c0,0,0-8.036,5.603-14.626c0.798-0.937,1.705-1.844,2.742-2.692l13.33-1.126l8.973,13.35l-6.351,11.824c0,0-18.693-0.249-18.693,0
			S207.38,3587.751,207.38,3587.751z M296.61,3659.784c-4.207,0-7.607-3.4-7.607-7.597c0-4.207,3.4-7.607,7.607-7.607
			c4.197,0,7.597,3.4,7.597,7.607C304.207,3656.384,300.808,3659.784,296.61,3659.784z M380.477,3630.622
			c0,3.441-2.79,6.231-6.231,6.231H219.214c-3.441,0-6.231-2.79-6.231-6.231v-28.175c0,0,0.01,0.01,0.04,0.02
			c1.924,1.466,72.85,54.196,152.748-26.679c0,0-32.901,19.691-58.822,18.694c0,0,17.447-7.477,24.925-18.694
			c0,0-24.177,9.721-38.384,1.994c0,0-7.617,21.066-26.36,22.871c14.945-9.481,24.865-26.171,24.865-45.174
			c0-7.767-1.655-15.154-4.646-21.814h86.897c3.441,0,6.231,2.79,6.231,6.231V3630.622z" />
	</g>
</svg>