<?xml version="1.0" encoding="iso-8859-1"?>
<!-- Generator: Adobe Illustrator 19.0.0, SVG Export Plug-In . SVG Version: 6.00 Build 0)  -->
<svg version="1.1"
    id="Layer_1"
    xmlns="http://www.w3.org/2000/svg"
    xmlns:xlink="http://www.w3.org/1999/xlink"
    x="0px"
    y="0px"
    viewBox="0 0 595.28 4109.178"
    style="enable-background:new 0 0 595.28 4109.178;"
    xml:space="preserve">
	<defs>
		<linearGradient
			id="GoldGradient"
			x1="0%"
			y1="0%"
			x2="100%"
			y2="0%"
		>
			<stop
				offset="0%"
				style="stop-color: rgba(255, 238, 191, 1); stop-opacity: 1"
			/>
			<stop
				offset="35%"
				style="stop-color: rgba(243, 220, 170, 1); stop-opacity: 1"
			/>
			<stop
				offset="100%"
				style="stop-color: rgba(189, 139, 75, 1); stop-opacity: 1"
			/>
		</linearGradient>
	</defs>
    <g>
        <path fill="url(#GoldGradient)"
            d="M261.964,1815.084c0.099-0.07,0.189-0.129,0.288-0.189c-0.149,0.129-0.308,0.259-0.457,0.388
			c0.06-0.06,0.109-0.129,0.149-0.189C261.944,1815.094,261.964,1815.094,261.964,1815.084z" />
        <path fill="url(#GoldGradient)"
            d="M272.376,1809.883c0,0.04-0.01,0.08-0.02,0.119c-0.189,0.03-0.368,0.07-0.547,0.099
			C271.998,1810.022,272.187,1809.953,272.376,1809.883z" />
        <path fill="url(#GoldGradient)"
            d="M365.658,1744.745c-0.01,0-0.01-0.01-0.02-0.01c-3.093-0.557-6.285-0.855-9.537-0.855
			c-0.129,0-0.269,0-0.398,0.01c3.55,0.02,7.031,0.378,10.392,1.044c6.882,1.353,13.306,3.978,19.024,7.618
			C379.322,1748.733,372.739,1746.037,365.658,1744.745z" />
        <path fill="url(#GoldGradient)"
            d="M261.964,1815.084c0,0.01-0.02,0.01-0.02,0.01c-0.04,0.06-0.09,0.129-0.149,0.189
			c0.149-0.129,0.308-0.259,0.457-0.388C262.153,1814.955,262.063,1815.015,261.964,1815.084z M271.809,1810.102
			c0.179-0.03,0.358-0.07,0.547-0.099c0.01-0.04,0.02-0.079,0.02-0.119C272.187,1809.953,271.998,1810.022,271.809,1810.102z" />
        <path fill="url(#GoldGradient)"
            d="M268.219,1782.346c0-0.01-0.01-0.01-0.01-0.01c-7.18-13.783-21.61-23.211-38.238-23.211
			c-2.735,0-5.42,0.259-8.005,0.746c0,0-0.01,0-0.02,0c-19.969,3.759-35.075,21.292-35.075,42.355
			c0,23.798,19.293,43.091,43.101,43.091h0.298c1.333-3.67,3.043-7.15,5.092-10.402c-1.85,0.318-3.749,0.487-5.688,0.487
			c-18.289,0-33.116-14.828-33.116-33.116c0-4.833,1.034-9.428,2.904-13.575c-0.169,1.362-0.249,2.755-0.249,4.167
			c0,19.502,15.812,35.304,35.304,35.304c2.158,0,4.276-0.189,6.325-0.557l0.01-0.01c5.46-6.166,12.302-11.078,20.049-14.281
			c1.054-0.448,2.128-0.845,3.222-1.223h0.01c1.173-0.398,2.357-0.766,3.57-1.074c0-0.01,0.01-0.01,0.01-0.01
			c1.333-0.358,2.695-0.666,4.067-0.915c0.01,0,0.02-0.01,0.03-0.01c0.189-0.079,0.378-0.149,0.567-0.219
			c0.099-0.487,0.179-0.975,0.239-1.472c0.298-2.019,0.447-4.087,0.447-6.186C273.062,1795.055,271.312,1788.293,268.219,1782.346z
			 M236.098,1808.521l-6.126-0.825l6.126-22.217c-2.148,1.492-8.453,2.824-8.453,2.824l1.163-5.639
			c8.284-0.666,10.114-5.639,10.114-5.639l5.629,1.492L236.098,1808.521z" />
        <path fill="url(#GoldGradient)"
            d="M292.703,1834.208c-3.162,0-5.718,2.894-5.718,6.464s2.556,6.464,5.718,6.464s5.718-2.894,5.718-6.464
			S295.866,1834.208,292.703,1834.208z M292.952,1854.764c-4.117,0-7.459,3.709-7.459,8.284c0,4.585,3.341,8.294,7.459,8.294
			s7.459-3.709,7.459-8.294C300.41,1858.473,297.069,1854.764,292.952,1854.764z M292.952,1854.764
			c-4.117,0-7.459,3.709-7.459,8.284c0,4.585,3.341,8.294,7.459,8.294s7.459-3.709,7.459-8.294
			C300.41,1858.473,297.069,1854.764,292.952,1854.764z M292.703,1847.136c3.162,0,5.718-2.894,5.718-6.464
			s-2.556-6.464-5.718-6.464s-5.718,2.894-5.718,6.464S289.541,1847.136,292.703,1847.136z M349.329,1854.943
			c-2.844-0.298-5.629-0.815-8.334-1.531c-0.527-0.139-1.044-0.278-1.551-0.438c-1.412-0.408-2.795-0.885-4.157-1.412
			c-14.987-5.758-26.851-17.811-32.35-32.937c-0.706-1.929-1.313-3.908-1.8-5.937v-0.01c-0.467-1.969-0.845-3.968-1.104-6.007
			c-2.427-0.308-4.903-0.467-7.409-0.467c-7.13,0-13.953,1.303-20.248,3.68c0,0.04-0.01,0.08-0.02,0.119
			c-0.189,0.03-0.368,0.07-0.547,0.099c-0.01,0-0.02,0.01-0.03,0.01c-3.331,1.293-6.504,2.894-9.497,4.764
			c-0.01,0.01-0.02,0.02-0.03,0.02c-0.149,0.129-0.308,0.259-0.457,0.388c0.06-0.06,0.109-0.129,0.149-0.189
			c-0.845,0.517-1.661,1.074-2.466,1.661c0,0-0.01,0-0.01,0.01c-3.073,2.168-5.907,4.624-8.483,7.349
			c-2.218,2.347-4.246,4.873-6.047,7.568c-2.645,3.938-4.803,8.224-6.414,12.779c-2.108,5.967-3.252,12.391-3.252,19.084
			c0,26.155,17.513,48.222,41.44,55.114c0.01,0.01,0.02,0.01,0.03,0.01c5.042,1.452,10.372,2.228,15.882,2.228
			c31.674,0,57.342-25.677,57.342-57.352C349.965,1860.621,349.746,1857.747,349.329,1854.943z M279.695,1840.175
			c0-7.409,6.007-13.425,13.425-13.425c7.409,0,13.425,6.017,13.425,13.425c0,4.674-2.387,8.781-6.007,11.188
			c4.952,2.486,8.324,7.379,8.324,13.018c0,8.145-7.051,14.748-15.743,14.748c-8.702,0-15.753-6.603-15.753-14.748
			c0-5.639,3.371-10.532,8.324-13.018C282.072,1848.956,279.695,1844.849,279.695,1840.175z M316.133,1906.865
			c-6.703,3.64-14.38,5.698-22.545,5.698c-26.195,0-47.437-21.232-47.437-47.437c0-0.179,0-0.358,0.01-0.537
			c5.45,20.645,24.255,35.881,46.621,35.881c18.776,0,35.045-10.73,43.001-26.383c0-0.01,0.01-0.01,0.01-0.02
			c2.407-4.724,4.057-9.905,4.783-15.365c0.288,2.098,0.438,4.246,0.438,6.424C341.015,1883.166,330.951,1898.849,316.133,1906.865z
			 M292.952,1871.342c4.117,0,7.459-3.709,7.459-8.294c0-4.575-3.341-8.284-7.459-8.284s-7.459,3.709-7.459,8.284
			C285.493,1867.632,288.835,1871.342,292.952,1871.342z M292.703,1847.136c3.162,0,5.718-2.894,5.718-6.464
			s-2.556-6.464-5.718-6.464s-5.718,2.894-5.718,6.464S289.541,1847.136,292.703,1847.136z" />
        <path fill="url(#GoldGradient)"
            d="M262.252,1814.895c-0.149,0.129-0.308,0.259-0.457,0.388c0.06-0.06,0.109-0.129,0.149-0.189
			c0,0,0.02,0,0.02-0.01C262.063,1815.015,262.153,1814.955,262.252,1814.895z" />
        <path fill="url(#GoldGradient)"
            d="M272.376,1809.883c0,0.04-0.01,0.08-0.02,0.119c-0.189,0.03-0.368,0.07-0.547,0.099
			C271.998,1810.022,272.187,1809.953,272.376,1809.883z" />
        <path fill="url(#GoldGradient)"
            d="M385.289,1752.651c-0.06-0.03-0.109-0.07-0.169-0.099c-5.718-3.64-12.143-6.265-19.024-7.618
			c-3.361-0.666-6.842-1.024-10.392-1.044c-29.019,0.209-52.479,23.788-52.479,52.866c0,0.716,0.01,1.432,0.05,2.138
			c0.08,2.168,0.298,4.306,0.636,6.404c0.119,0.706,0.239,1.402,0.388,2.098c0.527,2.615,1.253,5.151,2.168,7.608
			c0.636,1.76,1.382,3.481,2.208,5.151c5.201,10.522,13.813,19.064,24.385,24.196c1.293,0.626,2.615,1.203,3.968,1.72
			c1.223,0.477,2.476,0.915,3.749,1.293c2.377,0.726,4.833,1.283,7.339,1.661c2.606,0.388,5.271,0.597,7.986,0.597
			c29.198,0,52.877-23.669,52.877-52.867C408.978,1778.338,399.56,1762.128,385.289,1752.651z M337.206,1794.27l8.622,0.328
			c0,0-1.333,6.454,5.132,7.041c6.464,0.587,7.299-11.019,7.299-11.019s-13.107,7.956-17.244-9.279
			c0-7.299,4.475-16.25,12.272-16.906c0,0,14.917-2.486,14.748,13.923c-0.169,16.409-5.639,23.281-5.639,23.281
			s-7.797,11.526-21.381,3.073C336.212,1801.639,337.206,1794.27,337.206,1794.27z M357.871,1840.016
			c-4.913,0-9.636-0.806-14.042-2.287c-2.039-0.696-4.008-1.522-5.897-2.496c-3.302-1.681-6.355-3.759-9.099-6.186
			c2.426,1.104,4.972,1.989,7.608,2.655c1.462,0.378,2.954,0.676,4.475,0.895c2.228,0.338,4.505,0.507,6.822,0.507
			c25.399,0,45.985-20.596,45.985-45.995c0-8.732-2.427-16.896-6.653-23.848c9.04,8.035,14.738,19.76,14.738,32.818
			C401.807,1820.345,382.137,1840.016,357.871,1840.016z M356.101,1770.561c-8.284,0.666-7.289,10.611-6.961,12.272
			c0.328,1.651,5.579,9.209,9.945,0C363.45,1773.624,356.101,1770.561,356.101,1770.561z" />
        <path fill="url(#GoldGradient)"
            d="M366.096,1744.934c-3.361-0.666-6.842-1.024-10.392-1.044c0.129-0.01,0.268-0.01,0.398-0.01
			c3.252,0,6.444,0.298,9.537,0.855c0.01,0,0.01,0.01,0.02,0.01C365.807,1744.804,365.957,1744.874,366.096,1744.934z" />
        <path fill="url(#GoldGradient)"
            d="M298.421,1840.672c0,3.57-2.556,6.464-5.718,6.464s-5.718-2.894-5.718-6.464s2.556-6.464,5.718-6.464
			S298.421,1837.102,298.421,1840.672z" />
        <path fill="url(#GoldGradient)"
            d="M300.41,1863.048c0,4.585-3.341,8.294-7.459,8.294s-7.459-3.709-7.459-8.294
			c0-4.575,3.341-8.284,7.459-8.284S300.41,1858.473,300.41,1863.048z" />
        <path fill="url(#GoldGradient)"
            d="M300.41,1863.048c0,4.585-3.341,8.294-7.459,8.294s-7.459-3.709-7.459-8.294
			c0-4.575,3.341-8.284,7.459-8.284S300.41,1858.473,300.41,1863.048z" />
        <path fill="url(#GoldGradient)"
            d="M298.421,1840.672c0,3.57-2.556,6.464-5.718,6.464s-5.718-2.894-5.718-6.464s2.556-6.464,5.718-6.464
			S298.421,1837.102,298.421,1840.672z" />
        <path fill="url(#GoldGradient)"
            d="M359.085,1782.833c-4.366,9.209-9.617,1.651-9.945,0c-0.328-1.661-1.323-11.606,6.961-12.272
			C356.101,1770.561,363.45,1773.624,359.085,1782.833z" />
        <path fill="url(#GoldGradient)"
            d="M359.085,1782.833c-4.366,9.209-9.617,1.651-9.945,0c-0.328-1.661-1.323-11.606,6.961-12.272
			C356.101,1770.561,363.45,1773.624,359.085,1782.833z" />
    </g>
</svg>