<?xml version="1.0" encoding="iso-8859-1"?>
<!-- Generator: Adobe Illustrator 19.0.0, SVG Export Plug-In . SVG Version: 6.00 Build 0)  -->
<svg version="1.1"
	id="Layer_1"
	xmlns="http://www.w3.org/2000/svg"
	xmlns:xlink="http://www.w3.org/1999/xlink"
	x="0px"
	y="0px"
	viewBox="0 0 595.28 4109.178"
	style="enable-background:new 0 0 595.28 4109.178;"
	xml:space="preserve">
	<defs>
		<linearGradient
			id="GoldGradient"
			x1="0%"
			y1="0%"
			x2="100%"
			y2="0%"
		>
			<stop
				offset="0%"
				style="stop-color: rgba(255, 238, 191, 1); stop-opacity: 1"
			/>
			<stop
				offset="35%"
				style="stop-color: rgba(243, 220, 170, 1); stop-opacity: 1"
			/>
			<stop
				offset="100%"
				style="stop-color: rgba(189, 139, 75, 1); stop-opacity: 1"
			/>
		</linearGradient>
	</defs>
	<g>
        <path fill="url(#GoldGradient)"
            d="M261.914,3894.959c0,0,7.942,0.845,8.787-8.787c0.845-9.632-0.169-16.052,1.352-17.235
		s3.379-2.704,6.421-3.886c0,0,10.307-12.842,13.518-15.546c3.211-2.703,2.873-10.138,4.224-4.9
		c1.352,5.238,5.407-10.814,10.307-10.476s-1.69,2.704-3.717,7.435c-2.028,4.731,4.9-5.238,30.584-5.407
		c15.546-4.562,14.532-3.39,14.363-2.033c-0.169,1.357-8.787,2.54-9.463,3.892c-0.676,1.352,20.784,0.845,27.036,5.745
		c6.252,4.9-6.252,0.338-10.138,2.703c0,0,22.642,2.197,25.177,8.111s-7.942-3.042-25.008,1.183
		c-5.576,4.224,26.36,11.49,29.401,16.728c3.042,5.238-11.49-3.042-14.701-1.859s21.629,10.138,21.629,12.166
		c0,2.028-2.704,1.859-2.704,1.859s9.125,7.097-2.535,3.379c0,0,5.238,5.107,4.9,6.947s-19.263-5.933-21.291-5.595
		s18.622,8.28,22.322,18.756c3.193,6.759-19.619-11.49-30.602-11.49c0,0,28.557,13.687,28.726,22.473s-11.659-14.025-45.285-19.939
		c-3.886-1.014,3.042,4.393,6.083,6.928c3.042,2.535,6.083,25.008,3.042,32.781c-3.042,7.773-13.18,13.18-25.346,12.166
		c0,0,16.897,18.249,26.36,19.094c9.463,0.845,18.925,8.956,19.263,10.983c0.338,2.028-9.125-3.886-9.294-2.704
		s19.77,14.701,16.39,31.26c-2.469,3.344-1.521-8.111-6.252-6.928c0,0,3.042,15.715,2.535,23.825
		c2.197,3.718,6.759,8.787,3.379,7.942c-3.379-0.845-4.9-4.9-4.9-4.9s-2.197,11.49-5.407,11.659
		c-3.211,0.169,1.183-10.983-2.197-14.025c0,0-2.704,11.152-6.59,9.632c-3.886-1.521,3.886-7.942,2.197-16.897
		c0,0-7.435,19.939-11.321,17.911c-3.886-2.028,3.379-9.631,2.704-11.152c0,0-5.914,10.983-9.125,9.631
		c-3.211-1.352-2.197-7.942-2.197-7.942s-4.055,13.86-6.59,12.844c-2.535-1.016,0.845-12.506,0.845-12.506s-8.449,9.462-9.463,8.787
		c-1.014-0.676,5.069-13.518,4.393-15.039s-6.59,15.545-8.449,14.363c-1.859-1.183-0.845-8.28-0.845-8.28s-5.745,8.111-6.421,5.914
		c-0.676-2.197,6.083-14.701,5.576-15.208c-0.507-0.507-13.011,18.925-16.052,16.052c-3.042-2.872,6.252-7.435,6.421-10.307
		s-14.529,8.111-18.924,6.421s5.913-5.407,6.589-6.59s-24.332,3.549-18.587-0.845c5.745-4.393,17.742-4.393,18.587-4.393
		s11.321-9.632,12.335-11.828c1.014-2.197,1.352-20.108-1.859-16.222c-3.211,3.886-3.211,7.097-5.069-2.704
		c-1.859-9.8-2.028,0.338-4.731,1.014c-2.704,0.676-0.845-9.969-8.28-13.011s-19.094-2.704-19.094-2.704s-7.604,5.069-11.997,4.563
		c-4.393-0.507-3.717-5.238-13.518-4.224c-9.8,1.014-7.942,8.448-7.942,8.448s-0.507,12.842-2.028,14.363
		c-1.521,1.521-3.886,9.801-9.463,7.604c-5.576-2.197,3.211-0.338,3.886-8.956c0.676-8.618,2.197-18.587-3.717-20.277
		c-5.914-1.69-6.252-1.859-6.083,0.845s-0.338,4.731-1.859,7.266c-1.521,2.535-6.59,13.011-12.335,7.097
		c-1.909-2.908,2.873-1.352,3.21-2.366c0.338-1.014,2.028-4.393,3.717-6.759c1.69-2.366,0.169-14.701,0.169-14.701
		s-7.149-10.645-7.546-11.659c-0.396-1.014-3.438,0.338-5.972-2.534s-5.238,3.548-5.238,3.548s-2.873-8.449,7.942-7.942
		c0,0-3.886-3.718-6.421-2.197c0,0,2.873-4.562,9.8-1.352c0,0-2.535-2.028-4.9-1.859s4.055-4.393,7.773,0.338
		s11.49,22.643,11.49,22.643l22.98,0.845l8.956-0.676c0,0,5.069-2.873,6.252-2.704c0,0-7.266-10.476-7.435-13.518
		s3.211-20.615-2.028-24.67s-3.886,2.534-3.886,2.534l-3.042,1.183c0,0,2.197,3.042,2.535,4.731c0.338,1.69-2.873,1.014-2.873,1.014
		s0.845,4.055-0.676,4.224c-1.521,0.169-4.055,4.562-3.886,5.576c0.169,1.014-8.111-2.873-9.969-14.194
		c-1.859-11.321-5.745-18.418-10.645-18.756c-4.9-0.338-10.814-0.676-10.814-0.676s3.379-3.718,6.083-3.718
		c0,0-0.338-1.014-1.859-1.014s-2.197-2.197,1.69-2.197c3.886,0-7.604-1.859-7.942-2.704c-0.338-0.845,13.349-3.886,14.363-10.814
		c0.676-2.366,10.307-2.028,10.307-2.028s13.349-23.825,25.008-23.318c0.845,1.014-3.042,5.407-2.197,7.097s5.407-2.873,6.083-1.521
		c0.676,1.352-3.379,4.224-2.197,5.069c1.183,0.845,3.717-2.028,1.859,1.859c-1.859,3.886,4.393,0.507,3.379,2.535
		c-1.014,2.028-5.407,4.562-5.407,6.59c0,2.028,6.928,1.183,4.731,2.366c-2.197,1.183-6.928,1.69-6.083,2.704
		c0.845,1.014,3.717-0.676,4.224,1.183C261.914,3894.959,261.914,3894.959,261.914,3894.959z" />
    </g>
</svg>