<?xml version="1.0" encoding="iso-8859-1"?>
<!-- Generator: Adobe Illustrator 19.0.0, SVG Export Plug-In . SVG Version: 6.00 Build 0)  -->
<svg version="1.1"
    id="Layer_1"
    xmlns="http://www.w3.org/2000/svg"
    xmlns:xlink="http://www.w3.org/1999/xlink"
    x="0px"
    y="0px"
    viewBox="0 0 595.28 4109.178"
    style="enable-background:new 0 0 595.28 4109.178;"
    xml:space="preserve">
	<defs>
		<linearGradient
			id="GoldGradient"
			x1="0%"
			y1="0%"
			x2="100%"
			y2="0%"
		>
			<stop
				offset="0%"
				style="stop-color: rgba(255, 238, 191, 1); stop-opacity: 1"
			/>
			<stop
				offset="35%"
				style="stop-color: rgba(243, 220, 170, 1); stop-opacity: 1"
			/>
			<stop
				offset="100%"
				style="stop-color: rgba(189, 139, 75, 1); stop-opacity: 1"
			/>
		</linearGradient>
	</defs>
	<g>
		<path fill="url(#GoldGradient)"
			d="M389.722,388.101c-4.915,0.527-8.978,4.418-9.69,9.309c-0.749,5.141,2.052,9.742,6.319,11.69l-9.198,75.73
			h-5.517v-99.723c0-6.62-5.416-12.037-12.037-12.037H205.63c-6.62,0-12.037,5.417-12.037,12.037v134.58
			c0,6.62,5.416,12.037,12.037,12.037h153.969c6.62,0,12.037-5.417,12.037-12.037V494.61h7.452c2.756,0,5.074-2.066,5.391-4.803
			l9.255-80.065c4.744-1.224,8.245-5.537,8.245-10.672C401.978,392.568,396.37,387.389,389.722,388.101z M350.571,378.507
			c2.768,0,5.015,2.247,5.015,5.015c0,2.768-2.247,5.015-5.015,5.015c-2.768,0-5.015-2.247-5.015-5.015
			C345.556,380.753,347.803,378.507,350.571,378.507z M323.74,378.507c2.768,0,5.015,2.247,5.015,5.015
			c0,2.768-2.247,5.015-5.015,5.015s-5.015-2.247-5.015-5.015C318.724,380.753,320.971,378.507,323.74,378.507z M296.156,378.507
			c2.768,0,5.015,2.247,5.015,5.015c0,2.768-2.247,5.015-5.015,5.015s-5.015-2.247-5.015-5.015
			C291.14,380.753,293.387,378.507,296.156,378.507z M269.073,378.507c2.768,0,5.015,2.247,5.015,5.015
			c0,2.768-2.247,5.015-5.015,5.015c-2.768,0-5.015-2.247-5.015-5.015C264.058,380.753,266.305,378.507,269.073,378.507z
			 M242.482,378.507c2.768,0,5.015,2.247,5.015,5.015c0,2.768-2.247,5.015-5.015,5.015s-5.015-2.247-5.015-5.015
			C237.467,380.753,239.714,378.507,242.482,378.507z M215.41,378.507c2.768,0,5.015,2.247,5.015,5.015
			c0,2.768-2.247,5.015-5.015,5.015c-2.768,0-5.015-2.247-5.015-5.015C210.395,380.753,212.642,378.507,215.41,378.507z
			 M215.41,492.102c-2.768,0-5.015-2.247-5.015-5.015s2.247-5.015,5.015-5.015c2.768,0,5.015,2.247,5.015,5.015
			S218.178,492.102,215.41,492.102z M330.881,513.257c-0.672,2.046-2.578,3.42-4.714,3.42h-86.794c-2.167,0-4.092-1.414-4.735-3.491
			l-3.43-11.054h103.314L330.881,513.257z M237.467,487.087c0-2.768,2.247-5.015,5.015-5.015s5.015,2.247,5.015,5.015
			s-2.247,5.015-5.015,5.015S237.467,489.855,237.467,487.087z M264.058,487.087c0-2.768,2.247-5.015,5.015-5.015
			c2.768,0,5.015,2.247,5.015,5.015s-2.247,5.015-5.015,5.015C266.305,492.102,264.058,489.855,264.058,487.087z M291.14,487.087
			c0-2.768,2.247-5.015,5.015-5.015s5.015,2.247,5.015,5.015s-2.247,5.015-5.015,5.015S291.14,489.855,291.14,487.087z
			 M318.724,487.087c0-2.768,2.247-5.015,5.015-5.015s5.015,2.247,5.015,5.015s-2.247,5.015-5.015,5.015
			S318.724,489.855,318.724,487.087z M350.571,492.102c-2.768,0-5.015-2.247-5.015-5.015s2.247-5.015,5.015-5.015
			c2.768,0,5.015,2.247,5.015,5.015S353.34,492.102,350.571,492.102z M358.094,468.53c0,4.133-3.39,7.523-7.523,7.523H215.159
			c-4.133,0-7.523-3.39-7.523-7.523v-65.7c0-4.133,3.39-7.523,7.523-7.523h135.412c4.133,0,7.523,3.39,7.523,7.523V468.53z
			 M394.956,399.069c-1.525,0-2.758-1.234-2.758-2.758s1.234-2.758,2.758-2.758c1.525,0,2.758,1.234,2.758,2.758
			S396.481,399.069,394.956,399.069z" />
		<path fill="url(#GoldGradient)"
			d="M328.755,370.733h-97.547l2.758-11.895c0.734-3.166,3.555-5.408,6.805-5.408h78.591
			c3.286,0,6.128,2.291,6.827,5.502L328.755,370.733z" />
		<path fill="url(#GoldGradient)"
			d="M217.416,430.916v-18.055c0,0,14.795-1.003,21.566,2.006c6.771,3.009,9.78,2.006,12.037-0.752
			s7.272-0.502,5.768,4.388c-1.505,4.89-12.287,20.312-12.287,28.587c0,8.275,2.999,16.174,2.999,16.174H221.93
			c0,0-0.125-10.908,4.012-17.679c4.138-6.771,13.04-13.165,14.544-16.676c0,0-3.26-2.633-7.523-3.26
			C227.07,424.396,225.441,432.044,217.416,430.916z" />
		<path fill="url(#GoldGradient)"
			d="M308.932,430.916v-18.055c0,0,14.795-1.003,21.566,2.006s9.78,2.006,12.037-0.752s7.272-0.502,5.768,4.388
			c-1.505,4.89-12.287,20.312-12.287,28.587c0,8.275,2.999,16.174,2.999,16.174h-25.568c0,0-0.125-10.908,4.012-17.679
			c4.138-6.771,13.04-13.165,14.544-16.676c0,0-3.26-2.633-7.523-3.26C318.586,424.396,316.956,432.044,308.932,430.916z" />
		<path fill="url(#GoldGradient)"
			d="M260.547,424.605v-21.577c0,0,17.681-1.199,25.773,2.397c8.091,3.596,11.688,2.397,14.385-0.899
			c2.697-3.297,8.691-0.599,6.893,5.244c-1.798,5.844-14.685,24.274-14.685,34.164s3.584,19.33,3.584,19.33h-30.556
			c0,0-0.15-13.036,4.795-21.128c4.945-8.091,15.584-15.733,17.382-19.929c0,0-3.896-3.147-8.991-3.896
			C272.085,416.813,270.137,425.954,260.547,424.605z" />
	</g>
</svg>