<?xml version="1.0" encoding="iso-8859-1"?>
<!-- Generator: Adobe Illustrator 19.0.0, SVG Export Plug-In . SVG Version: 6.00 Build 0)  -->
<svg version="1.1"
	id="Layer_1"
	xmlns="http://www.w3.org/2000/svg"
	xmlns:xlink="http://www.w3.org/1999/xlink"
	x="0px"
	y="0px"
	viewBox="0 0 595.28 4109.178"
	style="enable-background:new 0 0 595.28 4109.178;"
	xml:space="preserve">
	<defs>
		<linearGradient
			id="GoldGradient"
			x1="0%"
			y1="0%"
			x2="100%"
			y2="0%"
		>
			<stop
				offset="0%"
				style="stop-color: rgba(255, 238, 191, 1); stop-opacity: 1"
			/>
			<stop
				offset="35%"
				style="stop-color: rgba(243, 220, 170, 1); stop-opacity: 1"
			/>
			<stop
				offset="100%"
				style="stop-color: rgba(189, 139, 75, 1); stop-opacity: 1"
			/>
		</linearGradient>
	</defs>
	<g id="XMLID_201_">
		<path fill="url(#GoldGradient)"
			d="M263.195,3143.366c0,0-4.148-5.279,0-9.176c4.148-3.896,7.793-7.667,12.57-7.416
			c4.776,0.251,8.799-1.006,11.187,3.017c2.388,4.022,4.525,7.919,4.399,10.81c-0.126,2.891-0.251,11.815-2.765,14.078
			c-2.514,2.262-0.503,6.788,0.88,6.788s4.148,2.514,4.651,4.399c0.503,1.885,14.706,6.788,18.1,15.209
			c3.394,8.422,6.913,17.346,8.045,19.357c1.131,2.011,6.662,11.438,8.924,14.707c2.263,3.268,10.307,8.673,5.782,13.449
			c-4.525,4.777-11.313,6.913-13.072,3.394c-1.76-3.519,3.268-1.131,3.52-2.388c0.251-1.257-6.033-6.41-8.547-10.181
			c-2.514-3.771-4.148-9.302-6.536-10.558c-2.388-1.257-7.667-6.033-7.919-6.913c-0.251-0.88-1.006,16.215,2.388,23.505
			c1.383,2.388-2.765,3.771-2.765,3.771s14.706,20.74,20.111,31.55c5.405,10.81,10.056,20.614,10.684,20.363
			s6.913-8.045,17.598-5.908c0,0,2.765-12.947,6.536-11.69c3.771,1.257,4.525,3.017,5.154,3.52
			c0.628,0.503,10.684,4.777,15.084,6.788c4.399,2.011,7.039,12.067,4.022,12.947c-3.017,0.88-7.165-3.017-11.313-1.885
			c-4.148,1.131-3.771-0.88-8.296-0.125c-4.525,0.754-9.427,8.673-15.586,10.056c-6.159,1.383-4.148,10.056-16.592,8.044
			c-12.444-2.011-18.603-18.226-21.243-18.729c-2.64-0.503-2.388-0.377-4.148,0.629c-1.76,1.005-11.061-0.754-18.98-14.455
			c-1.76-2.263-23.254,18.1-25.768,19.609c-2.514,1.508-4.776-4.651-7.919-2.514c-3.142,2.137-4.776,3.771-4.776,3.771
			s3.645,14.707-2.765,27.276c-4.022,9.427,0.754,32.681-5.028,32.932c-5.782,0.251-16.843-2.137-18.98-2.011
			s-21.745-2.263-20.614-10.684c0.88-5.782,8.799,1.76,21.117-7.165c0,0,4.651-1.006,5.656-0.503
			c1.006,0.503,3.897-33.058,2.011-39.217c-1.885-6.159,0.251-12.821,4.022-15.083c3.771-2.262,8.296-19.734,24.385-25.265
			c0,0-3.52-5.656,2.388-8.673l-0.126-40.726c0,0-1.257-18.352,1.006-20.866c2.263-2.514,0-5.656-4.776-7.793
			c-4.776-2.137-9.176-17.723-15.084-26.396c-5.908-8.673,0.754-12.821,0.754-12.821s2.263-2.765,0.628-5.531
			c-1.634-2.765,10.056-0.629,9.05,10.684c-0.754,7.919-2.388,8.799-2.388,8.799s6.536,7.667,7.667,7.667s7.919,3.52,8.422,8.044
			c0,0,0.88,1.131,2.011,0.126c1.131-1.006,3.017-1.634,3.017-1.634s-2.765-5.656-2.64-6.662s-2.514-7.165-1.885-9.804
			C265.081,3143.24,263.195,3143.366,263.195,3143.366z" />
		<circle fill="url(#GoldGradient)" />
	</g>
</svg>