<?xml version="1.0" encoding="iso-8859-1"?>
<!-- Generator: Adobe Illustrator 19.0.0, SVG Export Plug-In . SVG Version: 6.00 Build 0)  -->
<svg version="1.1"
    id="Layer_1"
    xmlns="http://www.w3.org/2000/svg"
    xmlns:xlink="http://www.w3.org/1999/xlink"
    x="0px"
    y="0px"
    viewBox="0 0 595.28 4109.178"
    style="enable-background:new 0 0 595.28 4109.178;"
    xml:space="preserve">
	<defs>
		<linearGradient
			id="GoldGradient"
			x1="0%"
			y1="0%"
			x2="100%"
			y2="0%"
		>
			<stop
				offset="0%"
				style="stop-color: rgba(255, 238, 191, 1); stop-opacity: 1"
			/>
			<stop
				offset="35%"
				style="stop-color: rgba(243, 220, 170, 1); stop-opacity: 1"
			/>
			<stop
				offset="100%"
				style="stop-color: rgba(189, 139, 75, 1); stop-opacity: 1"
			/>
		</linearGradient>
	</defs>
	<g>
			<path fill="url(#GoldGradient)"
				d="M414.27,1402.653c-13.615-15.248-110.054-12.967-126.737-9.731c-15.019,0.667-30.377,10.876-32.946,9.631
			c-2.829-3.237,21.244-12.121,21.244-12.121c-0.986-3.157-3.406-9.312-9.213-14.691c-9.093-8.426-23.515-11.812-22.907-8.964
			c3.566,16.762-3.566,39.51-7.719,44.151c-4.153,4.651-15.268,36.602-15.268,36.602c10.368-4.233,40.665,0,40.665,0v-15.517
			c0.329,6.802,9.083,17.18,9.083,17.18c-0.617-7.599,2.868-18.794,2.868-18.794c4.233,12.689,11.334,22.15,11.334,22.15
			s-1.623-10.826,6.972-19.541c28.256-29.132,54.778-26.144,54.778-26.144c-0.996,2.241-0.129,5.727-0.129,5.727
			s7.719-4.98,14.441-6.225c6.723-1.245,38.972-1.434,44.32,0.249c5.348,1.683,4.92,4.422,2.679,5.667
			c-2.241,0.687-18.366,9.352-18.366,9.352l-2.659-0.578c-53.782-9.462-63.244,7.968-62.577,7.47
			c0.667-0.498,10.627-3.984,10.627-3.984l0.329,2.988l12.778-5.478l-0.159,3.984l13.605-5.478l-3.147,5.806l15.437-4.143
			l-2.988,6.135l9.621-3.317l-5.139,5.478c25.228-9.96,35.685-18.097,35.685-18.097S417.925,1406.946,414.27,1402.653z
			 M347.421,1404.376c-1.862,0-3.446-1.125-4.133-2.739c0.976,1.872,5.129,0,5.129,0c-3.745-1.494-0.996-3.735-0.996-3.735
			c-2.042-0.817-3.745,0.289-4.293,0.717c0.538-1.852,2.261-3.207,4.293-3.207c2.47,0,4.482,2.002,4.482,4.482
			C351.902,1402.374,349.89,1404.376,347.421,1404.376z" />
			<path fill="url(#GoldGradient)"
				d="M326.708,1430.064c0,0,4.772,0.042,5.395-0.788l-1.411,2.531c0,0,7.262-0.747,7.885-1.266l-3.237,3.341
			h8.839l-3.61,3.61l10.209-2.116l-3.237,5.353l10.333-3.735c0,0-2.116,4.98-21.787,12.948
			c-19.67,7.968-39.896,16.807-39.896,16.807s16.49,14.193,15.743,22.036c0,0-20.791-9.711-23.53-10.333
			c-2.739-0.623-10.458-3.237-17.678,1.867c-7.221,5.104-20.666,18.176-21.911,30.501c-1.245,12.325,3.237,25.024,17.305,28.51
			c0,0-1.992-14.815,25.895-40.212c0,0-28.26,46.063-3.112,87.645c0,0-15.313-4.233-21.289-30.003
			c-1.618-6.847-5.478-6.225-5.478-6.225s-14.69-7.221-18.923-7.096c0,0-1.12,2.863-0.871,7.47c0,0-8.466-4.482-15.064-24.65
			c0,0,6.723,7.47,9.337,6.847c0,0-10.582-15.935-5.104-30.75c5.478-14.815,19.172-22.409,19.172-22.409s16.433-9.088,40.212-16.309
			c23.779-7.221,55.152-20.791,55.152-20.791S332.767,1436.953,326.708,1430.064z" />
			<path fill="url(#GoldGradient)"
				d="M358.097,1480.358c-0.877,0-1.594,0.717-1.594,1.604c0,0.876,0.717,1.594,1.594,1.594
			c0.886,0,1.603-0.717,1.603-1.594C359.701,1481.075,358.984,1480.358,358.097,1480.358z" />
			<path fill="url(#GoldGradient)"
				d="M351.315,1471.026c-8.227,0-14.9,6.663-14.9,14.89c0,8.237,6.673,14.9,14.9,14.9s14.9-6.663,14.9-14.9
			C366.214,1477.689,359.541,1471.026,351.315,1471.026z M351.135,1497.668c-6.553,0-11.872-5.318-11.872-11.872
			c0-6.334,4.98-11.523,11.235-11.852c-0.827,0.727-1.345,1.803-1.345,2.988c0,2.211,1.793,4.004,4.004,4.004
			c2.221,0,4.014-1.793,4.014-4.004c0-0.538-0.11-1.056-0.309-1.534c3.665,2.022,6.145,5.926,6.145,10.398
			C363.007,1492.35,357.689,1497.668,351.135,1497.668z" />
			<path fill="url(#GoldGradient)"
				d="M359.701,1481.962c0,0.876-0.717,1.594-1.603,1.594c-0.877,0-1.594-0.717-1.594-1.594
			c0-0.886,0.717-1.604,1.594-1.604C358.984,1480.358,359.701,1481.075,359.701,1481.962z" />
			<path fill="url(#GoldGradient)"
				d="M359.701,1481.962c0,0.876-0.717,1.594-1.603,1.594c-0.877,0-1.594-0.717-1.594-1.594
			c0-0.886,0.717-1.604,1.594-1.604C358.984,1480.358,359.701,1481.075,359.701,1481.962z" />
			<path fill="url(#GoldGradient)"
				d="M322.721,1516.382c-0.399,1.245-1.733,1.912-2.968,1.514c-1.235-0.408-1.912-1.733-1.514-2.978
			c0.408-1.235,1.743-1.912,2.978-1.504C322.452,1513.823,323.129,1515.147,322.721,1516.382z" />
			<path fill="url(#GoldGradient)"
				d="M322.721,1516.382c-0.399,1.245-1.733,1.912-2.968,1.514c-1.235-0.408-1.912-1.733-1.514-2.978
			c0.408-1.235,1.743-1.912,2.978-1.504C322.452,1513.823,323.129,1515.147,322.721,1516.382z" />
			<path fill="url(#GoldGradient)"
				d="M325.211,1507.389c-11.533-3.775-23.933,2.52-27.708,14.053c-3.765,11.533,2.52,23.933,14.053,27.708
			c11.533,3.765,23.943-2.53,27.708-14.053C343.038,1523.563,336.744,1511.153,325.211,1507.389z M334.762,1533.901
			c-2.998,9.183-12.888,14.203-22.071,11.195c-9.193-3.008-14.202-12.888-11.205-22.071c0.727-2.231,1.862-4.203,3.287-5.886
			c-0.139,2.599,1.474,5.079,4.073,5.926c3.097,1.016,6.434-0.677,7.45-3.775c0.996-3.088-0.667-6.404-3.725-7.43
			c3.446-1.155,7.27-1.255,10.995-0.04C332.75,1514.829,337.77,1524.709,334.762,1533.901z" />
			<path fill="url(#GoldGradient)"
				d="M322.721,1516.382c-0.399,1.245-1.733,1.912-2.968,1.514c-1.235-0.408-1.912-1.733-1.514-2.978
			c0.408-1.235,1.743-1.912,2.978-1.504C322.452,1513.823,323.129,1515.147,322.721,1516.382z" />
			<path fill="url(#GoldGradient)"
				d="M179.969,1464.632c0,0,12.699-13.943,51.79-13.446c33.614-0.013,35.855,2.739,35.855,2.739l-19.67,10.707
			c0,0-10.956-2.241-13.695-1.245c0,0-10.209,8.798-14.69,34.278c0,0-3.771-24.266-0.747-35.274
			C218.812,1462.391,211.591,1461.395,179.969,1464.632z" />
			<path fill="url(#GoldGradient)"
				d="M348.416,1401.637c0,0-4.153,1.872-5.129,0c-0.229-0.528-0.349-1.115-0.349-1.743
			c0-0.229,0.02-0.458,0.05-0.677c0.03-0.209,0.08-0.408,0.14-0.598c0.548-0.428,2.251-1.534,4.293-0.717
			C347.421,1397.902,344.672,1400.143,348.416,1401.637z" />
			<path fill="url(#GoldGradient)"
				d="M348.416,1401.637c0,0-4.153,1.872-5.129,0l-0.299-2.42l-0.05-0.448c0,0,0.07-0.06,0.189-0.149
			c0.548-0.428,2.251-1.534,4.293-0.717C347.421,1397.902,344.672,1400.143,348.416,1401.637z" />
		</g>
</svg>